<?xml version="1.0" encoding="UTF-8"?>
<svg class="ng-element" style="height:18px;mix-blend-mode:normal;width:24px" data-id="f7fe83e603924a8fa1f60c597af8fceb" preserveAspectRatio="none" version="1.2" xmlns="http://www.w3.org/2000/svg">
<g transform="translate(0)">
<path d="m22 0h-20c-1.09 0.04-1.96 0.91-2 2v14c0.04 1.09 0.91 1.96 2 2h20c1.09-0.04 1.96-0.91 2-2v-14c-0.04-1.09-0.91-1.96-2-2zm0 16h-20v-14h20zm-8-2v-1.25c0-1.66-3.34-2.5-5-2.5s-5 0.84-5 2.5v1.25zm-5-10c-1.3807 0-2.5 1.1193-2.5 2.5s1.1193 2.5 2.5 2.5 2.5-1.1193 2.5-2.5-1.1193-2.5-2.5-2.5zm5 0v1h6v-1zm0 2v1h6v-1zm0 2v1h4v-1z" fill="#212b36" stroke-width="0"/>
</g>
</svg>
