<svg height="20" preserveAspectRatio="none" width="16" xmlns="http://www.w3.org/2000/svg"><path d="m2 0c-1.10457 0-2 .89543-2 2v16c0 1.10457.89543 2 2 2h12c1.10457 0 2-.89543 2-2v-16c0-1.10457-.89543-2-2-2zm6 3c2.76142 0 5 2.23858 5 5s-2.23858 5-5 5-5-2.23858-5-5 2.23858-5 5-5zm0 1c-.41.62-.75 1.29-.96 2h1.92c-.21-.71-.54-1.38-.96-2zm-1.3.22c-.92.31-1.7.95-2.16 1.78h1.46c.18-.62.4-1.22.7-1.78zm2.59 0c.3.56.53 1.16.71 1.78h1.46c-.46-.83-1.25-1.46-2.17-1.78zm-5.16 2.78c-.08.32-.13.65-.13 1s.05.68.13 1h1.69c-.04-.33-.07-.66-.07-1s.03-.67.07-1zm2.7 0c-.05.32-.08.66-.08 1s.03.67.08 1h2.34c.04-.33.08-.66.08-1s-.04-.68-.08-1zm3.35 0c.04.33.07.66.07 1s-.03.67-.07 1h1.69c.08-.32.13-.65.13-1s-.05-.68-.13-1zm-5.64 3c.46.83 1.24 1.46 2.16 1.78-.3-.56-.52-1.15-.7-1.78zm2.5 0c.21.72.55 1.38.96 2 .42-.62.75-1.28.96-2zm2.96 0c-.18.63-.41 1.22-.71 1.78.92-.32 1.71-.95 2.17-1.78zm-7 5h10v2h-10z" fill="#212b36"/></svg>