<?xml version="1.0" encoding="utf-8"?>
<!-- Generator: Adobe Illustrator 24.0.2, SVG Export Plug-In . SVG Version: 6.00 Build 0)  -->
<svg version="1.1" id="Layer_1" xmlns="http://www.w3.org/2000/svg" xmlns:xlink="http://www.w3.org/1999/xlink" x="0px" y="0px"
	 viewBox="0 0 396.4 104.35" style="enable-background:new 0 0 396.4 104.35;" xml:space="preserve">
<style type="text/css">
	.st0{fill:#162948;}
	.st1{fill:#A9EFFF;}
	.st2{opacity:0.2;fill:#FFFFFF;}
	.st3{fill:#2AC5A0;}
	.st4{fill:#4BEACC;}
	.st5{fill:#00B3E3;}
</style>
<g>
	<g>
		<path class="st0" d="M145.53,75.18h-29.04v-8.02l18.29-29.71h-16.99v-8.59h27.29v7.41l-18.64,30.31h19.09V75.18z"/>
		<path class="st0" d="M177.08,75.18v-4.29c-0.98,1.74-2.35,3.02-4.12,3.85s-4.03,1.24-6.79,1.24c-5.17,0-9.49-1.77-12.96-5.3
			c-3.47-3.53-5.2-7.92-5.2-13.15c0-2.46,0.43-4.79,1.3-7s2.11-4.15,3.72-5.82c1.74-1.84,3.67-3.21,5.79-4.09
			c2.12-0.88,4.51-1.32,7.16-1.32c2.54,0,4.73,0.43,6.57,1.27c1.83,0.85,3.31,2.13,4.44,3.85v-4.23h7.95v34.99H177.08z
			 M156.34,57.39c0,2.95,0.98,5.41,2.94,7.4c1.96,1.98,4.35,2.97,7.17,2.97c2.57,0,4.82-1,6.78-2.99c1.95-1.99,2.92-4.33,2.92-7
			c0-2.84-0.98-5.28-2.94-7.33c-1.96-2.05-4.26-3.07-6.89-3.07c-2.76,0-5.11,0.97-7.06,2.91C157.32,52.22,156.34,54.59,156.34,57.39
			z"/>
		<path class="st0" d="M205.44,40.18v7.25h-5.85v27.74h-8.14V47.44l0,0v-7.25h0v-0.95c0-3.69,1.02-6.44,3.05-8.26
			c2.04-1.81,5.12-2.72,9.26-2.72c0.17,0,0.44,0.01,0.81,0.03c0.37,0.02,2.54,0.03,2.75,0.03v7.32h-2.45c-1.84,0-3.16,0.3-3.96,0.91
			c-0.8,0.6-1.19,1.61-1.19,3.01v0.64H205.44z"/>
		<path class="st0" d="M215.72,60.26c0.28,2.52,1.28,4.51,3.01,5.96c1.73,1.45,3.96,2.18,6.7,2.18c1.82,0,3.46-0.38,4.91-1.15
			c1.45-0.76,2.6-1.83,3.45-3.21h8.78c-1.48,3.82-3.71,6.78-6.66,8.89c-2.96,2.11-6.38,3.17-10.26,3.17c-2.61,0-5.01-0.46-7.21-1.38
			c-2.2-0.92-4.16-2.29-5.9-4.09c-1.65-1.72-2.94-3.71-3.85-5.96c-0.91-2.26-1.37-4.57-1.37-6.95c0-2.44,0.42-4.73,1.26-6.89
			c0.84-2.15,2.07-4.09,3.71-5.8c1.78-1.89,3.8-3.34,6.04-4.36c2.25-1.02,4.57-1.53,6.97-1.53c3.03,0,5.87,0.69,8.49,2.07
			c2.63,1.38,4.87,3.32,6.71,5.82c1.12,1.51,1.96,3.19,2.5,5.06c0.54,1.87,0.81,4.01,0.81,6.43c0,0.19-0.01,0.48-0.03,0.88
			s-0.03,0.68-0.03,0.87H215.72z M235.02,53.8c-0.7-2.33-1.87-4.11-3.51-5.33c-1.64-1.22-3.72-1.83-6.22-1.83
			c-2.16,0-4.1,0.66-5.82,1.97s-2.87,3.04-3.47,5.18H235.02z"/>
		<path class="st0" d="M275.2,75.18h-29.04v-8.02l18.29-29.71h-16.99v-8.59h27.29v7.41l-18.64,30.31h19.09V75.18z"/>
		<path class="st0" d="M277.68,57.52c0-2.46,0.45-4.8,1.35-7.01c0.9-2.22,2.21-4.18,3.93-5.9c1.76-1.76,3.74-3.11,5.95-4.06
			c2.2-0.94,4.49-1.42,6.87-1.42c2.52,0,4.85,0.42,6.98,1.26c2.13,0.84,4.09,2.1,5.87,3.77c1.82,1.76,3.23,3.79,4.23,6.09
			c1,2.3,1.49,4.66,1.49,7.08c0,2.67-0.43,5.11-1.3,7.32c-0.87,2.21-2.17,4.2-3.91,5.98c-1.74,1.8-3.72,3.17-5.95,4.09
			c-2.23,0.92-4.64,1.38-7.25,1.38c-2.63,0-5.02-0.47-7.19-1.4c-2.16-0.93-4.14-2.33-5.92-4.2c-1.7-1.82-2.98-3.83-3.85-6.03
			C278.11,62.28,277.68,59.96,277.68,57.52z M286.08,57.46c0,3.24,0.89,5.82,2.67,7.71c1.78,1.9,4.2,2.85,7.25,2.85
			c3.01,0,5.41-0.97,7.2-2.91c1.79-1.94,2.69-4.55,2.69-7.84c0-2.95-0.94-5.37-2.81-7.27c-1.88-1.9-4.24-2.85-7.08-2.85
			c-2.93,0-5.31,0.96-7.16,2.88C287,51.95,286.08,54.43,286.08,57.46z"/>
		<path class="st0" d="M327.46,40.18v3.98c1.19-1.59,2.55-2.77,4.09-3.53c1.54-0.76,3.29-1.15,5.27-1.15c2.52,0,4.72,0.48,6.6,1.43
			s3.44,2.39,4.69,4.29c0.81,1.27,1.38,2.72,1.74,4.34c0.35,1.62,0.52,3.99,0.52,7.11v18.51h-8.14V59.68c0-4.69-0.54-7.9-1.62-9.64
			c-1.08-1.74-2.95-2.61-5.6-2.61c-2.72,0-4.67,0.96-5.85,2.88c-1.19,1.92-1.78,5.21-1.78,9.88v14.98h-7.86V40.18H327.46z"/>
		<path class="st0" d="M363.79,60.26c0.28,2.52,1.28,4.51,3.01,5.96c1.73,1.45,3.96,2.18,6.7,2.18c1.82,0,3.46-0.38,4.91-1.15
			c1.45-0.76,2.6-1.83,3.45-3.21h8.78c-1.48,3.82-3.7,6.78-6.66,8.89c-2.96,2.11-6.38,3.17-10.26,3.17c-2.61,0-5.01-0.46-7.21-1.38
			c-2.2-0.92-4.16-2.29-5.9-4.09c-1.65-1.72-2.94-3.71-3.85-5.96c-0.91-2.26-1.37-4.57-1.37-6.95c0-2.44,0.42-4.73,1.26-6.89
			c0.84-2.15,2.07-4.09,3.71-5.8c1.78-1.89,3.8-3.34,6.04-4.36c2.25-1.02,4.57-1.53,6.97-1.53c3.03,0,5.87,0.69,8.49,2.07
			c2.63,1.38,4.87,3.32,6.71,5.82c1.12,1.51,1.96,3.19,2.5,5.06c0.54,1.87,0.81,4.01,0.81,6.43c0,0.19-0.01,0.48-0.03,0.88
			c-0.02,0.39-0.03,0.68-0.03,0.87H363.79z M383.1,53.8c-0.7-2.33-1.87-4.11-3.51-5.33c-1.64-1.22-3.72-1.83-6.22-1.83
			c-2.16,0-4.1,0.66-5.82,1.97s-2.87,3.04-3.47,5.18H383.1z"/>
	</g>
	<g>
		<path class="st1" d="M50.89,33.04H4.52c0.16,12.6,3.5,24.43,9.25,34.74l37.11-21.14l23.87-13.6H50.89z"/>
		<path class="st2" d="M13.78,67.78l37.11-21.14v-13.6H4.52C4.68,45.64,8.02,57.48,13.78,67.78z"/>
		<path class="st3" d="M50.89,58.63l-14.87,8.47h14.87h35.15c5.24-9.96,8.24-21.27,8.37-33.27L50.89,58.63z"/>
		<polygon class="st2" points="50.89,67.11 50.89,58.63 36.01,67.11 		"/>
		<path class="st4" d="M50.89,77.53H20.29c7.89,9.97,18.31,17.85,30.3,22.66c0.1-0.04,0.19-0.1,0.29-0.14
			c11.29-5.03,21.07-12.82,28.49-22.52H50.89z"/>
		<path class="st2" d="M50.59,100.19c0.1-0.04,0.19-0.1,0.29-0.14V77.53H20.29C28.18,87.5,38.61,95.38,50.59,100.19z"/>
		<path class="st5" d="M50.89,4.2c-0.48-0.01-0.96-0.04-1.44-0.04c-17.02,0-32.37,7.09-43.3,18.45h44.74h41.86
			C82.12,11.57,67.32,4.59,50.89,4.2z"/>
		<path class="st2" d="M6.15,22.62h44.74V4.2c-0.48-0.01-0.96-0.04-1.44-0.04C32.43,4.17,17.08,11.25,6.15,22.62z"/>
	</g>
</g>
</svg>
