<?xml version="1.0" standalone="no"?>
<!DOCTYPE svg PUBLIC "-//W3C//DTD SVG 20010904//EN"
 "http://www.w3.org/TR/2001/REC-SVG-20010904/DTD/svg10.dtd">
<svg version="1.0" xmlns="http://www.w3.org/2000/svg"
 width="700.000000pt" height="700.000000pt" viewBox="0 0 700.000000 700.000000"
 preserveAspectRatio="xMidYMid meet">
<metadata>
Created by potrace 1.14, written by Peter Selinger 2001-2017
</metadata>
<g transform="translate(0.000000,700.000000) scale(0.100000,-0.100000)"
fill="#000000" stroke="none">
<path d="M3287 6844 c-1 -1 -48 -5 -105 -9 -57 -3 -113 -8 -124 -10 -11 -2
-47 -7 -81 -10 -34 -4 -64 -8 -67 -10 -3 -1 -32 -6 -65 -10 -80 -9 -278 -49
-395 -81 -414 -111 -744 -250 -1107 -467 -292 -175 -528 -357 -786 -609 l-79
-78 3017 1 3018 0 -24 26 c-21 22 -160 158 -193 188 -162 148 -433 348 -636
471 -254 153 -594 308 -875 397 -191 61 -478 131 -625 151 -19 3 -51 7 -70 10
-58 8 -132 17 -180 21 -25 2 -76 7 -115 11 -64 6 -502 13 -508 8z"/>
<path d="M374 4660 c4 -96 8 -186 10 -200 2 -14 7 -56 10 -95 10 -100 17 -158
21 -175 2 -8 7 -37 11 -65 3 -27 8 -59 10 -70 2 -11 9 -49 14 -85 6 -36 17
-92 25 -125 8 -33 23 -100 35 -150 84 -369 272 -862 461 -1208 42 -77 42 -77
67 -61 13 9 49 30 81 47 31 17 73 41 93 54 21 13 39 23 41 23 4 0 286 160 317
180 17 10 111 64 185 105 28 15 122 69 210 120 88 50 180 103 205 117 25 14
95 53 155 88 61 34 126 71 145 82 19 11 132 75 250 143 118 67 233 133 255
145 85 48 1043 594 1105 630 58 34 369 210 475 270 22 12 60 34 85 49 25 14
61 35 81 46 167 92 529 301 529 305 0 3 -1099 5 -2441 5 l-2442 0 7 -175z"/>
<path d="M6426 4660 c-115 -66 -210 -120 -211 -120 -2 0 -54 -30 -116 -66 -63
-36 -139 -80 -169 -97 -30 -16 -112 -63 -182 -104 -70 -40 -130 -73 -133 -73
-3 0 -18 -8 -33 -19 -23 -16 -699 -402 -1097 -626 -22 -13 -78 -45 -125 -72
-47 -27 -92 -52 -100 -56 -8 -4 -31 -17 -50 -28 -41 -25 -524 -300 -590 -337
-25 -13 -49 -28 -55 -32 -5 -4 -35 -21 -65 -37 -30 -17 -181 -102 -335 -190
-154 -88 -302 -172 -330 -188 -73 -40 -259 -147 -264 -151 -2 -2 780 -4 1738
-4 l1742 0 73 153 c132 275 181 398 272 682 41 128 115 407 128 480 2 17 12
68 21 115 8 47 18 100 21 119 3 18 7 41 9 50 2 9 6 44 10 76 4 33 9 67 10 76
2 9 6 52 10 95 4 43 9 88 11 99 2 11 6 87 9 170 4 82 8 162 10 178 2 15 3 27
2 27 -1 0 -96 -54 -211 -120z"/>
<path d="M1470 1732 c0 -8 142 -178 219 -261 515 -563 1126 -997 1812 -1286
87 -37 61 -43 279 65 159 78 246 125 312 167 21 12 40 23 43 23 3 0 78 48 167
106 321 210 561 406 838 683 159 159 352 375 422 474 l19 27 -93 0 c-641 3
-4018 4 -4018 2z"/>
</g>
</svg>
